<svg width="22" height="16" viewBox="0 0 22 16" fill="none" xmlns="http://www.w3.org/2000/svg">
<path d="M11.05 16C8.81667 16 6.91667 15.225 5.35 13.675C3.78333 12.125 3 10.2333 3 8V7.825L1.4 9.425L0 8.025L4 4.025L8 8.025L6.6 9.425L5 7.825V8C5 9.66667 5.5875 11.0833 6.7625 12.25C7.9375 13.4167 9.36667 14 11.05 14C11.4833 14 11.9083 13.95 12.325 13.85C12.7417 13.75 13.15 13.6 13.55 13.4L15.05 14.9C14.4167 15.2667 13.7667 15.5417 13.1 15.725C12.4333 15.9083 11.75 16 11.05 16ZM18 11.975L14 7.975L15.4 6.575L17 8.175V8C17 6.33333 16.4125 4.91667 15.2375 3.75C14.0625 2.58333 12.6333 2 10.95 2C10.5167 2 10.0917 2.05 9.675 2.15C9.25833 2.25 8.85 2.4 8.45 2.6L6.95 1.1C7.58333 0.733333 8.23333 0.458333 8.9 0.275C9.56667 0.0916667 10.25 0 10.95 0C13.1833 0 15.0833 0.775 16.65 2.325C18.2167 3.875 19 5.76667 19 8V8.175L20.6 6.575L22 7.975L18 11.975Z" fill="white"/>
</svg>
